<?xml version="1.0" encoding="UTF-8" standalone="no"?>
<!--part of the matt icon theme by sixsixfive released under CC0 (https://creativecommons.org/publicdomain/zero/1.0/) on openclipart-->
<svg xmlns="http://www.w3.org/2000/svg" xmlns:xlink="http://www.w3.org/1999/xlink" viewBox="0 0 128 128">
 <defs id="0">
  <linearGradient id="2">
   <stop id="D" stop-color="#eee"/>
   <stop id="E" offset="1" stop-color="#eee" stop-opacity="0"/>
  </linearGradient>
  <linearGradient id="3">
   <stop id="F" stop-color="#888"/>
   <stop id="G" offset="1" stop-color="#494949"/>
  </linearGradient>
  <linearGradient id="4">
   <stop id="H"/>
   <stop id="I" offset="1" stop-opacity="0"/>
  </linearGradient>
  <radialGradient cx="63.894" cy="117.35" r="53.91" id="5" xlink:href="#4" gradientUnits="userSpaceOnUse" gradientTransform="matrix(1,0,0,0.08641975,0,107.20963)"/>
  <radialGradient cx="63.21" cy="-8.84" r="54.27" id="6" xlink:href="#2" gradientUnits="userSpaceOnUse" gradientTransform="matrix(1.2606553,0,0,0.9847417,-16.476307,0.9860661)"/>
  <linearGradient y1="8.211" x2="0" y2="121.04" id="7" xlink:href="#3" gradientUnits="userSpaceOnUse"/>
 </defs>
 <g id="1">
  <path d="m 117.80366,117.35108 a 53.910149,4.6589017 0 1 1 -107.8202997,0 53.910149,4.6589017 0 1 1 107.8202997,0 z" transform="translate(1.2996963,3.4536055)" id="8" opacity="0.443" fill="url(#5)"/>
  <path d="m 122.08898,64.625572 a 56.734097,55.918617 0 1 1 -113.4681952,0 56.734097,55.918617 0 1 1 113.4681952,0 z" transform="matrix(1.0119373,0,0,1.0266947,-2.1350421,-4.4029736)" id="9" fill="url(#7)" stroke="#323232"/>
  <path d="m 122.08898,64.625572 a 56.734097,55.918617 0 1 1 -113.4681952,0 56.734097,55.918617 0 1 1 113.4681952,0 z" transform="matrix(1.0119373,0,0,1.0266947,-2.1350421,-4.4029736)" id="A" fill="none" stroke="#323232" stroke-width="3.924"/>
  <path d="m 65.34375,12.21875 c -29.447616,0 -53.21875,23.463494 -53.21875,52.40625 0,28.942756 23.771134,52.40625 53.21875,52.40625 29.447616,0 53.25,-23.465862 53.25,-52.40625 0,-28.940388 -23.802384,-52.40625 -53.25,-52.40625 z" transform="matrix(1.0119373,0,0,1.0266947,-2.1350421,-4.4029736)" id="B" fill="none" stroke="url(#6)" stroke-width="2.079"/>
  <g transform="matrix(4.816973,0,0,4.816973,-2763.5828,-109.86352)" id="C" fill="#ddd">
   <path d="m 590.69453,28.408277 c -0.0568,0.01603 -0.11711,0.05787 -0.18182,0.113557 -0.3192,0.274543 -0.37122,0.568455 -0.15901,0.794837 0.3417,0.364567 0.73099,0.0097 0.77253,-0.704001 l 0,-0.181682 -0.22714,-0.02271 c -0.0943,-0.0062 -0.14773,-0.01603 -0.20456,0 z" id="J"/>
   <path d="m 589.0585,29.29396 c -0.49846,0.05214 -1.05644,0.215689 -1.54514,0.454196 -0.38421,0.18751 -0.54999,0.321603 -1.04524,0.794838 -0.75905,0.725392 -0.84067,0.843308 -0.84067,1.408007 0,0.361682 0.0247,0.483387 0.13628,0.726709 0.17889,0.390199 0.53875,0.762595 0.90887,0.953811 0.26397,0.136343 0.31933,0.162172 0.54532,0.136256 0.73676,-0.08444 1.93168,-0.864072 2.45405,-1.589682 0.33347,-0.463075 0.75037,-1.331698 0.74986,-1.566973 -10e-4,-0.434683 -0.43286,-1.063977 -0.84074,-1.249034 -0.16755,-0.07604 -0.27663,-0.09385 -0.52259,-0.06813 z" id="K"/>
   <path d="m 585.19566,29.997962 c -0.23079,-0.0091 -0.72707,0.326322 -0.72707,0.522323 0,0.0486 0.0316,0.139825 0.0909,0.204384 0.11756,0.127897 0.32671,0.144837 0.45444,0.04542 0.13527,-0.105236 0.34078,-0.447509 0.34085,-0.567743 0,-0.06244 -0.027,-0.146685 -0.0682,-0.181675 -0.0193,-0.01643 -0.0579,-0.0214 -0.0909,-0.02271 z" id="L"/>
   <path d="m 583.42338,31.065318 c -0.35068,0.01101 -0.71455,0.07987 -0.99984,0.227094 -0.79864,0.412107 -1.2165,1.204643 -1.18159,2.225555 0.0153,0.445842 0.0251,0.528165 0.15901,0.749425 0.11536,0.1903 0.23095,0.279643 0.50001,0.431481 0.45435,0.256517 0.6399,0.243895 1.15884,-0.06813 0.44736,-0.268986 1.14804,-0.948588 1.38606,-1.362581 0.39264,-0.682898 0.53125,-1.413956 0.31803,-1.771357 -0.18256,-0.306177 -0.75624,-0.449848 -1.34052,-0.431487 z" id="M"/>
   <path d="m 594.03472,31.133448 c -0.25515,-0.0079 -0.66279,0.147203 -0.86342,0.340648 -0.23304,0.224646 -0.23641,0.343286 0.0226,0.613163 0.11734,0.122176 0.25836,0.227094 0.31817,0.227094 0.39491,0 0.94337,-0.868568 0.70435,-1.112777 -0.0376,-0.0384 -0.0967,-0.06548 -0.18175,-0.06813 z" id="N"/>
   <path d="m 592.03512,32.132676 c -0.77188,0.144145 -2.18433,0.971021 -2.77206,1.657812 -0.43279,0.505638 -0.62293,1.138478 -0.47726,1.589682 0.11653,0.360714 0.44709,0.66158 0.90889,0.817546 0.27657,0.09334 0.59093,0.04162 1.11344,-0.158967 0.66877,-0.256787 0.96923,-0.450894 1.6133,-1.090066 0.75454,-0.748793 0.84074,-0.946105 0.84074,-1.635102 0,-0.443882 -0.0126,-0.490175 -0.13641,-0.68129 -0.16842,-0.260276 -0.50239,-0.462972 -0.81802,-0.499615 -0.0794,-0.0092 -0.16237,-0.0206 -0.27262,0 z" id="O"/>
   <path d="m 582.71896,35.652684 c -0.2291,-0.0072 -0.49181,0.01164 -0.81799,0.09084 -0.90365,0.219375 -1.51558,0.664859 -1.84053,1.339879 -0.314,0.652193 -0.4271,1.618001 -0.2272,1.953032 0.14042,0.235479 0.35001,0.306388 0.97709,0.386068 0.30694,0.03901 0.64325,0.12496 0.77245,0.181676 0.30703,0.13472 0.61113,0.459986 0.88623,0.931102 0.20324,0.348107 0.25018,0.374639 0.54532,0.522324 0.42756,0.213911 0.71823,0.525675 0.99975,1.04464 0.26323,0.485298 0.49804,0.719173 0.74982,0.794847 0.54145,0.16265 1.45732,-0.197094 2.04512,-0.794847 0.31111,-0.31643 0.45818,-0.623837 0.6816,-1.589675 0.0964,-0.416563 0.22816,-0.854029 0.40904,-1.271749 0.15325,-0.354029 0.31228,-0.787875 0.34084,-0.953804 0.0803,-0.465682 0.005,-1.008785 -0.18175,-1.385296 -0.20587,-0.41438 -0.43389,-0.557599 -1.34059,-0.817548 l -0.70448,-0.181675 -0.40897,0.113547 c -0.40685,0.108354 -0.43906,0.09901 -0.72715,0.02271 -0.16571,-0.04388 -0.48992,-0.06799 -0.70432,-0.06813 -0.32014,-1.81e-4 -0.44672,-0.05031 -0.77268,-0.181682 -0.24062,-0.09703 -0.45254,-0.129061 -0.6816,-0.136256 z" id="P"/>
   <path d="m 593.30758,35.925202 c -0.0545,8e-5 -0.11246,0.0025 -0.2045,0.02271 -0.69463,0.152287 -1.03088,0.633912 -0.65892,0.953804 0.18232,0.156868 0.3323,0.155485 0.54539,0.02271 0.19632,-0.12239 0.28566,-0.246899 0.4089,-0.613163 0.0933,-0.277276 0.0725,-0.386308 -0.0909,-0.386061 z" id="Q"/>
   <path d="m 591.8533,36.78817 c -0.0901,-5.54e-4 -0.19355,0.0043 -0.31803,0.02271 -0.80613,0.119149 -1.44888,0.422959 -1.90864,0.885684 -0.56076,0.564181 -0.82363,1.149796 -0.9317,2.157425 -0.0302,0.28129 -0.0229,0.352673 0.0909,0.590451 0.14443,0.301632 0.23671,0.385915 0.5226,0.545035 0.1601,0.0891 0.2337,0.08975 0.45444,0.06813 0.47186,-0.04625 0.91485,-0.222811 1.38613,-0.545035 1.27945,-0.874806 1.91157,-2.5139 1.29519,-3.383747 -0.17454,-0.246273 -0.32014,-0.339004 -0.59086,-0.340649 z" id="R"/>
  </g>
 </g>
</svg>
